<svg width="800" height="800" viewBox="0 0 800 800" fill="none" xmlns="http://www.w3.org/2000/svg">
<rect width="800" height="800" fill="#1E1E1E"/>
<rect width="800" height="800" fill="white"/>
<path d="M130.344 584.121V588.012C130.344 599.428 128.447 615.425 107.371 615.425C88.91 615.425 85 603.87 85 588.641V538.309C85 522.907 91.9767 512.691 107.633 512.691C126.327 512.691 129.897 525.098 129.897 538.931V543.402H114.489V537.125C114.489 530.491 112.937 526.716 107.597 526.716C102.347 526.716 100.652 530.348 100.652 537.178V589.957C100.652 596.469 101.947 601.53 107.782 601.53C113.331 601.53 114.805 597.132 114.805 589.705V584.121H130.344Z" fill="#1A427D"/>
<path d="M152.567 613.966L135.128 514.149H151.735L157.034 554.76C158.765 568.202 160.918 582.323 161.814 593.805H162.094C162.972 582.981 165.275 568.728 166.874 555.077L171.85 514.149H188.308L171.323 613.966H152.567Z" fill="#1A427D"/>
<path d="M210.662 560.352H214.875C224.459 560.352 226.099 554.746 226.099 545.004V540.097C226.099 532.841 224.78 526.859 216.242 526.859H210.662V560.352ZM195.291 514.149H217.459C233.288 514.149 241.358 521.98 241.358 539.631V545.513C241.358 561.986 235.484 572.929 216.6 572.929H210.662V613.966H195.291V514.149Z" fill="#1A427D"/>
<path d="M265.715 556.62H269.24C277.374 556.62 280.365 553.551 280.365 542.695V539.272C280.365 531.557 278.772 526.859 270.059 526.859H265.715V556.62ZM265.715 569.331V613.966H250.344V514.149H271.635C286.8 514.149 295.754 520.234 295.754 538.201V542.003C295.754 557.341 289.468 561.242 285.607 562.826C291.42 565.557 294.745 569.754 294.745 583.298C294.745 591.701 294.596 607.916 295.658 613.966H280.811C279.487 607.935 279.768 591.541 279.768 584.289C279.768 572.121 278.203 569.331 269.282 569.331H265.715Z" fill="#1A427D"/>
<path d="M677.822 570.027C676.697 569.994 676.134 570.753 676.086 572.401L675.773 583.159C675.728 584.741 676.176 585.613 677.372 585.648C678.561 585.683 679.03 584.806 679.079 583.161L679.39 572.415C679.433 570.95 678.998 570.061 677.822 570.027Z" fill="#1A427D"/>
<path d="M529.982 559.057C538.648 551.954 540.814 539.133 530.179 554.915C529.982 555.308 527.027 559.845 527.224 560.043C528.012 560.635 529.194 559.649 529.982 559.057Z" fill="#1A427D"/>
<path d="M387.764 587.265C394.066 587.463 398.991 584.109 398.006 578.586C394.461 581.347 390.521 583.32 387.764 587.265Z" fill="#1A427D"/>
<path d="M311.106 616.837C314.869 628.667 320.598 640.368 328.972 650.219C324.763 614.406 379.047 505.182 380.08 487.253C351.905 520.727 333.057 571.482 311.106 616.837Z" fill="#1A427D"/>
<path d="M705.51 583.004C705.401 586.767 704.191 589.472 700.143 589.354C696.448 589.247 695.247 586.867 695.333 583.903L695.347 583.416L698.676 583.513L698.653 584.273C698.623 585.365 698.914 586.569 700.223 586.606C701.625 586.647 701.959 585.653 702.026 583.319L702.099 580.832C702.157 578.795 701.85 577.875 700.509 577.835C699.35 577.803 698.95 578.47 698.684 579.793L695.721 579.401C696.108 576.398 696.691 570.745 696.957 567.8L705.448 568.046L705.026 570.985L699.783 570.833C699.63 572.601 699.398 574.758 699.247 575.947C699.714 575.375 700.675 575.029 701.812 575.062C704.639 575.145 705.676 577.242 705.573 580.807L705.51 583.004ZM693.526 588.901L684.093 588.626L684.105 588.226C684.25 584.21 685.904 581.657 688.144 578.668C689.965 576.259 690.6 575.501 690.668 573.152C690.731 571.017 690.517 570.155 689.296 570.119C688.218 570.088 687.774 570.881 687.724 572.558L687.693 573.664L684.602 573.574L684.636 572.374C684.708 569.933 685.576 567.208 689.528 567.323C693.155 567.428 694.131 569.713 694.034 573.044C693.935 576.418 692.807 577.813 690.971 580.145C689.417 582.12 688.129 584.156 687.918 585.848L694.064 586.027L693.526 588.901ZM682.416 582.925C682.324 586.134 681.283 588.805 677.162 588.686C673.353 588.575 672.392 585.882 672.486 582.673L672.773 572.707C672.881 569.031 674.524 566.886 677.976 566.986C681.36 567.086 682.813 569.264 682.711 572.762L682.416 582.925ZM670.422 588.229L660.988 587.954L661 587.554C661.145 583.539 662.799 580.984 665.039 577.997C666.859 575.588 667.495 574.829 667.564 572.48C667.625 570.345 667.411 569.483 666.192 569.447C665.114 569.416 664.668 570.21 664.619 571.887L664.587 572.992L661.497 572.902L661.53 571.702C661.602 569.262 662.471 566.537 666.422 566.651C670.051 566.756 671.026 569.041 670.929 572.372C670.831 575.746 669.701 577.142 667.867 579.473C666.311 581.448 665.025 583.484 664.813 585.177L670.96 585.356L670.422 588.229ZM652.983 590.794L650.511 590.723C651.746 587.858 652.327 584.765 652.392 582.873L655.451 582.962C655.301 585.86 654.178 589.044 652.983 590.794ZM650.348 581.4C650.239 585.163 649.029 587.868 644.982 587.75C641.285 587.643 640.086 585.263 640.171 582.299L640.185 581.813L643.514 581.909L643.491 582.669C643.461 583.762 643.752 584.964 645.061 585.003C646.462 585.043 646.796 584.049 646.864 581.715L646.937 579.228C646.995 577.192 646.688 576.271 645.347 576.232C644.188 576.198 643.788 576.866 643.522 578.189L640.559 577.796C640.946 574.794 641.531 569.141 641.794 566.195L650.287 566.443L649.864 569.381L644.621 569.229C644.467 570.996 644.236 573.155 644.086 574.343C644.552 573.77 645.513 573.426 646.651 573.459C649.477 573.541 650.514 575.638 650.412 579.203L650.348 581.4ZM637.757 587.279L634.403 587.182L634.906 569.854C634.318 569.92 633.245 569.91 632.767 569.884L632.84 567.345C634.206 567.256 635.3 566.625 635.924 565.92L638.374 565.991L637.757 587.279ZM632.001 580.005L626.126 579.834L626.213 576.768L632.089 576.939L632.001 580.005ZM623.565 586.867L620.212 586.769L620.714 569.442C620.127 569.507 619.055 569.497 618.577 569.47L618.651 566.932C620.016 566.842 621.109 566.212 621.734 565.507L624.184 565.578L623.565 586.867ZM616.244 586.654L612.891 586.556L613.394 569.229C612.805 569.295 611.733 569.284 611.253 569.258L611.328 566.719C612.693 566.63 613.787 565.999 614.411 565.294L616.862 565.365L616.244 586.654ZM605.728 573.305L605.639 576.392L600.861 576.254L600.662 583.111L606.169 583.271L605.655 586.346L597.22 586.101L597.85 564.33L606.246 564.575L606.156 567.691L601.114 567.545L600.95 573.166L605.728 573.305ZM594.317 586.016L590.582 585.908C589.97 583.287 587.425 571.263 587.233 570.342L587.2 570.341C587.285 572.982 587.187 575.932 587.072 579.848L586.9 585.801L583.774 585.71L584.406 563.941L588.289 564.053C589.068 567.15 591.35 577.971 591.547 579.132L591.583 579.132C591.506 576.45 591.585 573.387 591.689 569.81L591.852 564.157L594.948 564.246L594.317 586.016ZM581.103 580.351C581.001 583.787 579.39 585.901 575.764 585.796C572.308 585.695 570.709 583.774 570.816 580.064L571.295 563.558L574.647 563.656L574.169 580.215C574.122 581.805 574.616 582.725 575.913 582.763C577.242 582.802 577.702 581.797 577.745 580.323L578.223 563.761L581.58 563.858L581.103 580.351ZM568.174 580.287C568.089 583.193 567.639 585.502 563.767 585.389C563.287 585.375 562.596 585.294 562.063 585.188L562.147 582.33C562.423 582.371 562.701 582.412 563.157 582.425C564.327 582.458 564.764 582.159 564.809 580.595L565.308 563.385L568.66 563.483L568.174 580.287ZM518.951 591.605C518.753 591.605 518.753 591.605 518.753 591.408C516.451 588.973 515.733 585.54 515.832 581.973C512.563 588.818 507.476 598.783 502.601 605.807C501.617 606.993 499.253 608.767 497.874 606.993C495.48 603.515 495.933 596 497.915 586.784C494.811 592.987 490.859 600.301 487.039 605.807C486.054 606.993 483.689 608.767 482.311 606.993C474.431 595.55 497.281 540.513 504.569 524.338C505.357 522.168 506.538 520.195 507.72 518.222C508.509 516.645 511.659 515.263 511.857 517.433C513.037 523.943 504.372 542.882 502.6 544.459C500.038 546.826 499.448 550.18 498.265 552.942C491.373 570.3 485.266 600.877 485.659 601.27C487.693 598.944 496.143 581.945 500.763 575.691C506.424 556.232 515.899 533.733 520.132 524.338C520.92 522.168 522.102 520.195 523.284 518.222C524.072 516.645 527.222 515.263 527.42 517.433C528.601 523.943 519.935 542.882 518.163 544.459C515.602 546.826 515.011 550.18 513.828 552.942C506.936 570.3 500.829 600.877 501.223 601.27C503.339 598.849 512.41 580.525 516.874 574.979C518.816 567.174 527.333 541.324 538.648 544.854C541.405 545.84 542.784 548.404 541.011 551.561C537.269 558.267 530.179 565.172 527.815 562.213C527.42 561.818 527.224 561.423 526.632 561.029C522.89 569.511 517.768 581.545 521.315 589.435C523.875 595.156 540.421 571.286 542.784 568.525C543.966 576.81 527.027 599.89 518.951 591.605ZM475.417 585.49C472.857 588.054 468.327 584.701 470.099 575.627C472.069 564.58 480.932 543.867 481.13 543.67C482.509 540.513 487.433 541.697 486.054 545.642C479.159 564.974 475.614 570.892 475.024 580.558C474.826 583.123 476.992 584.109 475.417 585.49ZM462.612 573.26C462.219 576.022 459.657 583.911 457.688 586.278C455.324 589.041 450.991 588.843 449.218 583.123C447.857 578.807 447.198 574.374 447.097 569.805C444.068 577.601 438.188 587.367 434.249 583.714C425.385 575.034 438.384 548.009 438.582 541.697C431.097 548.996 420.067 580.558 417.308 588.252C415.338 589.435 413.37 588.843 413.172 586.476C412.877 583.334 414.396 575.772 416.665 566.727C413.759 568.823 409.23 571.683 402.535 576.022C403.521 583.517 404.308 584.898 399.976 588.054C394.854 591.802 390.324 591.408 385.99 589.829C384.415 589.237 383.824 587.857 383.233 586.082C383.435 585.675 383.688 585.306 383.927 584.926C378.534 588.882 374.194 582.093 374.37 577.008L369.445 583.32C367.476 585.293 364.916 585.293 363.536 583.517C357.036 575.233 369.248 551.166 377.521 549.193C381.067 548.404 384.022 548.799 385.794 551.363C386.582 552.349 386.385 552.743 385.005 554.125C384.218 553.336 383.43 552.942 382.84 552.152C379.491 546.826 363.536 567.736 365.899 581.15C368.066 578.586 370.628 576.416 377.718 562.608C378.112 561.818 378.506 560.832 379.688 560.832C380.87 560.635 382.248 560.438 383.037 561.423C383.233 561.818 383.233 562.41 383.037 562.804C379.885 567.933 376.93 577.796 379.688 583.32C383.627 581.939 388.158 570.3 390.521 565.368C391.759 568.024 391.082 575.284 387.373 581.023C390.151 578.66 393.728 576.676 397.611 574.246C396.233 568.131 391.112 557.281 402.535 549.785C411.006 544.065 417.703 547.418 411.596 556.886C409.626 559.649 407.461 559.057 405.096 557.676C406.673 555.308 408.248 553.139 409.233 550.574C403.521 553.336 400.173 557.676 399.581 562.608C399.188 565.566 400.369 568.131 401.156 570.695C401.354 571.484 402.143 571.484 403.521 570.695C410.876 566.275 415.348 563.276 417.937 561.79C423.318 541.41 431.294 516.575 431.294 516.448C434.444 516.053 435.431 517.04 434.642 519.604C431.885 529.665 420.855 566.553 420.46 568.919C423.415 563.002 430.112 537.357 440.354 538.343C442.128 538.541 443.308 539.922 443.113 542.093C442.915 548.996 433.461 571.484 436.416 580.558C440.604 575.313 444.021 570.066 447.211 564.684C447.576 558.902 448.717 552.901 450.398 546.628C450.991 544.262 451.582 543.67 453.748 543.473C455.522 543.473 457.095 544.853 456.505 546.628C454.537 555.308 451.385 561.029 453.945 580.952H454.537C454.733 580.755 455.915 576.81 456.112 576.416C456.703 575.034 457.095 573.457 457.688 571.879C458.869 568.722 459.855 565.566 461.234 562.41C463.794 556.097 467.339 549.785 472.066 544.065C481.128 533.017 476.399 543.275 475.021 545.446C468.521 555.9 463.005 570.892 462.612 573.26ZM485.463 531.833C485.659 530.058 486.054 528.481 486.448 526.704C486.448 526.113 486.644 525.522 486.841 524.929C487.039 524.338 487.433 523.549 488.418 523.155C489.993 522.365 490.584 523.352 491.765 523.943C493.145 525.128 492.553 526.509 491.569 528.086C490.584 529.665 489.796 531.045 488.811 532.426C487.433 534.99 484.872 534.201 485.463 531.833ZM713.422 561.683L705.3 561.44L705.207 558.201C707.502 557.395 709.117 555.174 709.044 552.608C708.951 549.432 706.306 546.933 703.135 547.025C699.964 547.117 697.467 549.766 697.559 552.942C697.627 555.287 699.089 557.26 701.126 558.096L701.219 561.318L688.477 560.938L688.379 557.531C690.675 556.724 692.291 554.504 692.217 551.938C692.125 548.761 689.48 546.262 686.308 546.354C683.136 546.446 680.64 549.095 680.732 552.271C680.801 554.616 682.262 556.589 684.298 557.425L684.396 560.816L672.923 560.475L672.817 556.768C675.113 555.962 676.728 553.741 676.655 551.175C676.562 547.999 673.916 545.5 670.746 545.592C667.574 545.683 665.078 548.333 665.17 551.509C665.237 553.853 666.7 555.826 668.736 556.663L668.842 560.353L622.471 558.969H622.45L561.886 557.162C561.886 557.162 557.118 505.408 516.805 497.973C484.103 491.943 469.322 516.415 457.328 516.762C445.334 517.111 441.213 468.369 383.566 470.042C325.917 471.714 305.451 540.561 304.878 574.315C304.763 581.188 305.241 589.201 306.588 597.658C308.952 590.757 311.705 582.64 314.884 573.062C324.929 541.894 328.868 534.596 330.641 525.324C331.231 521.576 337.338 521.576 336.55 525.128C334.787 533.365 317.367 583.051 308.618 607.88C308.89 609.02 309.178 610.162 309.484 611.306C310.476 609.209 311.667 606.685 313.111 603.638L313.504 602.848C313.504 602.848 353.49 513.686 366.884 498.102C367.671 497.115 368.065 495.932 368.853 494.946C376.929 483.702 380.475 478.771 386.187 479.559C397.72 481.125 317.899 636.347 335.941 657.402C336.293 657.719 336.654 658.032 337.014 658.343C342.82 661.235 361.13 642.556 364.914 639.145C363.141 643.485 359.989 645.852 360.187 647.036C360.187 647.359 349.521 659.28 340.463 661.139C350.438 668.723 362.983 674.063 378.675 675.716C406.63 678.662 430.127 660.649 437.518 648.414C444.907 636.178 451.512 623.576 463.697 629.814C475.882 636.054 505.549 657.684 535.049 646.746C535.049 646.746 519.26 636.345 521.485 619.606C523.712 602.866 525.046 595.459 563.372 595.122L650.492 594.921C656.693 595.128 672.612 596.606 675.825 613.963L714.878 612.054L713.422 561.683Z" fill="#1A427D"/>
<path fill-rule="evenodd" clip-rule="evenodd" d="M238.946 270.512H177.194V214.298C177.194 197.952 176.509 187.786 175.14 183.799C173.869 179.679 170.985 177.619 166.486 177.619C161.401 177.619 158.175 180.078 156.806 184.995C155.437 189.912 154.752 200.543 154.752 216.889V366.793C154.752 382.475 155.437 392.707 156.806 397.492C158.175 402.276 161.255 404.668 166.046 404.668C170.642 404.668 173.625 402.276 174.994 397.492C176.461 392.707 177.194 381.478 177.194 363.803V323.337H238.946V335.895C238.946 369.252 237.186 392.907 233.666 406.861C230.243 420.814 222.567 433.041 210.637 443.539C198.805 454.038 184.186 459.287 166.78 459.287C148.689 459.287 133.777 454.835 122.043 445.931C110.308 437.027 102.534 424.735 98.7205 409.053C94.9068 393.239 93 369.518 93 337.889V243.601C93 220.345 93.5867 202.935 94.7602 191.374C95.9336 179.679 99.405 168.45 105.174 157.685C111.042 146.921 119.109 138.482 129.376 132.369C139.742 126.123 151.623 123 165.02 123C183.208 123 198.218 127.784 210.05 137.353C221.882 146.921 229.656 158.881 233.372 173.234C237.088 187.453 238.946 209.647 238.946 239.813V270.512Z" fill="#7394C7"/>
<path fill-rule="evenodd" clip-rule="evenodd" d="M407.774 129.778L376.385 452.51H282.656L247.013 129.778H312.139C319.669 218.683 325.047 293.835 328.274 355.231C331.501 293.17 334.874 238.019 338.395 189.779L342.648 129.778H407.774Z" fill="#7394C7"/>
<path fill-rule="evenodd" clip-rule="evenodd" d="M418.335 129.778H480.527C497.346 129.778 510.254 131.572 519.25 135.16C528.344 138.748 535.141 143.931 539.639 150.708C544.235 157.486 547.315 165.725 548.88 175.426C550.542 184.995 551.373 199.879 551.373 220.079V248.186C551.373 268.784 549.809 283.801 546.679 293.237C543.55 302.672 537.781 309.915 529.371 314.965C521.059 320.015 510.156 322.54 496.662 322.54H480.087V452.51H418.335V129.778ZM480.087 184.995V267.123C481.847 267.256 483.363 267.322 484.634 267.322C490.306 267.322 494.217 265.462 496.368 261.741C498.617 257.887 499.742 249.98 499.742 238.019V211.507C499.742 200.477 498.471 193.301 495.928 189.978C493.386 186.656 488.105 184.995 480.087 184.995Z" fill="#7394C7"/>
<path fill-rule="evenodd" clip-rule="evenodd" d="M569.121 129.778H612.832C641.972 129.778 661.676 131.306 671.944 134.362C682.309 137.419 690.719 145.26 697.173 157.885C703.724 170.377 707 190.377 707 217.886C707 243.003 704.702 259.88 700.106 268.518C695.51 277.156 686.465 282.339 672.97 284.067C685.194 288.187 693.408 293.702 697.613 300.612C701.817 307.523 704.409 313.902 705.387 319.749C706.462 325.463 707 341.344 707 367.391V452.51H649.648V345.264C649.648 327.988 648.622 317.29 646.568 313.171C644.612 309.051 639.381 306.991 630.873 306.991V452.51H569.121V129.778ZM630.873 184.995V256.757C637.816 256.757 642.657 255.495 645.395 252.97C648.231 250.312 649.648 241.873 649.648 227.654V209.912C649.648 199.68 648.279 192.968 645.541 189.779C642.901 186.59 638.012 184.995 630.873 184.995Z" fill="#7394C7"/>
</svg>
