<svg width="800" height="800" viewBox="0 0 800 800" fill="none" xmlns="http://www.w3.org/2000/svg">
<rect width="800" height="800" fill="#1E1E1E"/>
<rect width="800" height="800" fill="white"/>
<path d="M70.4311 625.648V630.404C70.4311 644.358 68.1117 663.911 42.347 663.911C19.7798 663.911 15 649.788 15 631.172V569.65C15 550.823 23.5287 538.336 42.6683 538.336C65.5211 538.336 69.8845 553.502 69.8845 570.41V575.874H51.0491V568.203C51.0491 560.094 49.1517 555.479 42.6244 555.479C36.2056 555.479 34.1344 559.919 34.1344 568.267V632.78C34.1344 640.741 35.7169 646.928 42.8504 646.928C49.6336 646.928 51.4358 641.552 51.4358 632.473V625.648H70.4311Z" fill="#1A427D"/>
<path d="M97.5979 662.128L76.2793 540.118H96.5809L103.059 589.759C105.174 606.189 107.807 623.45 108.902 637.485H109.245C110.317 624.254 113.133 606.832 115.088 590.146L121.171 540.118H141.29L120.526 662.128H97.5979Z" fill="#1A427D"/>
<path d="M168.617 596.593H173.767C185.483 596.593 187.488 589.742 187.488 577.833V571.835C187.488 562.966 185.875 555.654 175.438 555.654H168.617V596.593ZM149.826 540.118H176.926C196.276 540.118 206.141 549.69 206.141 571.265V578.455C206.141 598.591 198.961 611.967 175.876 611.967H168.617V662.128H149.826V540.118Z" fill="#1A427D"/>
<path d="M235.917 592.032H240.226C250.169 592.032 253.826 588.28 253.826 575.011V570.827C253.826 561.396 251.878 555.654 241.227 555.654H235.917V592.032ZM235.917 607.569V662.128H217.126V540.118H243.154C261.692 540.118 272.638 547.556 272.638 569.517V574.165C272.638 592.913 264.954 597.681 260.234 599.618C267.34 602.956 271.405 608.085 271.405 624.641C271.405 634.913 271.223 654.733 272.521 662.128H254.371C252.752 654.756 253.096 634.717 253.096 625.853C253.096 610.979 251.183 607.569 240.277 607.569H235.917Z" fill="#1A427D"/>
<path d="M739.701 608.42C738.325 608.379 737.637 609.307 737.578 611.322L737.196 624.472C737.141 626.406 737.688 627.471 739.15 627.514C740.604 627.556 741.177 626.485 741.237 624.474L741.617 611.339C741.67 609.548 741.138 608.461 739.701 608.42Z" fill="#1A427D"/>
<path d="M558.972 595.01C569.566 586.329 572.214 570.657 559.213 589.947C558.972 590.428 555.36 595.974 555.601 596.216C556.564 596.94 558.009 595.734 558.972 595.01Z" fill="#1A427D"/>
<path d="M385.117 629.491C392.821 629.732 398.841 625.633 397.637 618.882C393.303 622.257 388.487 624.669 385.117 629.491Z" fill="#1A427D"/>
<path d="M291.405 665.638C296.005 680.097 303.009 694.401 313.246 706.442C308.1 662.666 374.46 529.157 375.723 507.241C341.28 548.158 318.24 610.198 291.405 665.638Z" fill="#1A427D"/>
<path d="M773.548 624.282C773.415 628.881 771.936 632.188 766.987 632.044C762.47 631.913 761.002 629.004 761.107 625.381L761.124 624.786L765.194 624.904L765.166 625.834C765.129 627.168 765.485 628.639 767.085 628.685C768.799 628.735 769.207 627.52 769.289 624.667L769.378 621.628C769.449 619.138 769.074 618.013 767.434 617.964C766.018 617.924 765.529 618.74 765.204 620.357L761.581 619.878C762.054 616.207 762.767 609.297 763.092 605.697L773.472 605.998L772.956 609.591L766.547 609.405C766.36 611.566 766.076 614.203 765.892 615.656C766.463 614.957 767.637 614.534 769.027 614.575C772.483 614.676 773.751 617.239 773.625 621.597L773.548 624.282ZM758.898 631.49L747.367 631.155L747.381 630.665C747.559 625.757 749.58 622.635 752.319 618.982C754.545 616.038 755.321 615.111 755.404 612.239C755.481 609.63 755.22 608.576 753.727 608.532C752.409 608.494 751.866 609.464 751.805 611.513L751.767 612.866L747.989 612.756L748.03 611.289C748.118 608.305 749.18 604.974 754.011 605.114C758.445 605.243 759.638 608.036 759.519 612.108C759.398 616.232 758.019 617.938 755.775 620.787C753.875 623.201 752.3 625.69 752.043 627.759L759.556 627.978L758.898 631.49ZM745.317 624.186C745.204 628.109 743.931 631.373 738.894 631.227C734.237 631.092 733.063 627.8 733.178 623.878L733.528 611.695C733.66 607.203 735.669 604.581 739.889 604.703C744.026 604.824 745.802 607.487 745.677 611.763L745.317 624.186ZM730.654 630.669L719.122 630.333L719.136 629.844C719.314 624.936 721.336 621.813 724.074 618.161C726.299 615.217 727.076 614.289 727.161 611.418C727.235 608.809 726.974 607.755 725.483 607.711C724.166 607.673 723.62 608.644 723.56 610.693L723.521 612.044L719.744 611.934L719.784 610.468C719.872 607.484 720.935 604.153 725.765 604.293C730.201 604.422 731.393 607.215 731.274 611.287C731.154 615.411 729.773 617.117 727.531 619.967C725.629 622.381 724.057 624.869 723.798 626.938L731.312 627.157L730.654 630.669ZM709.336 633.805L706.314 633.717C707.824 630.215 708.534 626.435 708.613 624.122L712.353 624.23C712.17 627.774 710.797 631.665 709.336 633.805ZM706.115 622.321C705.982 626.921 704.502 630.228 699.555 630.084C695.036 629.952 693.57 627.044 693.674 623.421L693.691 622.826L697.76 622.944L697.732 623.873C697.696 625.208 698.051 626.678 699.652 626.725C701.364 626.774 701.773 625.56 701.856 622.706L701.945 619.667C702.016 617.178 701.641 616.052 700.001 616.005C698.584 615.963 698.095 616.779 697.77 618.397L694.148 617.917C694.621 614.247 695.336 607.336 695.658 603.736L706.04 604.038L705.523 607.63L699.114 607.444C698.925 609.605 698.643 612.243 698.46 613.696C699.029 612.996 700.204 612.574 701.595 612.615C705.05 612.715 706.318 615.279 706.193 619.636L706.115 622.321ZM690.723 629.508L686.623 629.389L687.238 608.208C686.519 608.289 685.207 608.276 684.623 608.245L684.712 605.141C686.382 605.032 687.719 604.261 688.482 603.399L691.477 603.486L690.723 629.508ZM683.686 620.617L676.504 620.408L676.611 616.66L683.794 616.868L683.686 620.617ZM673.374 629.004L669.275 628.885L669.888 607.705C669.171 607.784 667.86 607.772 667.276 607.739L667.366 604.637C669.035 604.527 670.371 603.757 671.135 602.895L674.13 602.982L673.374 629.004ZM664.424 628.744L660.325 628.624L660.94 607.444C660.22 607.525 658.909 607.511 658.323 607.479L658.414 604.376C660.083 604.267 661.42 603.496 662.183 602.634L665.179 602.721L664.424 628.744ZM651.569 612.426L651.46 616.2L645.619 616.031L645.376 624.412L652.108 624.608L651.479 628.367L641.168 628.067L641.938 601.457L652.202 601.755L652.092 605.565L645.928 605.386L645.728 612.256L651.569 612.426ZM637.619 627.964L633.053 627.831C632.305 624.628 629.194 609.93 628.959 608.805L628.919 608.804C629.023 612.032 628.903 615.638 628.762 620.424L628.552 627.701L624.731 627.59L625.503 600.98L630.25 601.118C631.202 604.903 633.992 618.13 634.233 619.549L634.277 619.55C634.183 616.271 634.279 612.527 634.407 608.154L634.606 601.245L638.39 601.354L637.619 627.964ZM621.466 621.04C621.341 625.239 619.372 627.823 614.939 627.695C610.714 627.571 608.759 625.223 608.89 620.688L609.476 600.513L613.573 600.633L612.989 620.874C612.932 622.817 613.535 623.941 615.121 623.988C616.746 624.035 617.308 622.807 617.361 621.005L617.945 600.76L622.049 600.879L621.466 621.04ZM605.66 620.961C605.556 624.513 605.006 627.335 600.273 627.197C599.686 627.18 598.841 627.081 598.19 626.952L598.293 623.459C598.63 623.508 598.97 623.558 599.527 623.574C600.958 623.615 601.492 623.249 601.547 621.337L602.157 600.301L606.255 600.421L605.66 620.961ZM545.487 634.795C545.245 634.795 545.245 634.795 545.245 634.555C542.431 631.579 541.553 627.381 541.674 623.022C537.678 631.389 531.46 643.569 525.5 652.156C524.297 653.604 521.407 655.773 519.722 653.604C516.795 649.354 517.349 640.168 519.772 628.903C515.977 636.485 511.146 645.425 506.476 652.156C505.272 653.604 502.381 655.773 500.696 653.604C491.063 639.618 518.997 572.344 527.906 552.573C528.869 549.92 530.313 547.508 531.758 545.097C532.722 543.169 536.573 541.479 536.815 544.132C538.258 552.089 527.665 575.239 525.499 577.167C522.367 580.06 521.646 584.159 520.2 587.536C511.774 608.754 504.309 646.129 504.789 646.61C507.276 643.767 517.605 622.987 523.253 615.343C530.174 591.558 541.756 564.056 546.931 552.573C547.894 549.92 549.339 547.508 550.784 545.097C551.747 543.169 555.598 541.479 555.84 544.132C557.284 552.089 546.69 575.239 544.524 577.167C541.393 580.06 540.671 584.159 539.225 587.536C530.799 608.754 523.334 646.129 523.816 646.61C526.402 643.65 537.491 621.252 542.948 614.473C545.322 604.932 555.734 573.335 569.566 577.649C572.936 578.855 574.622 581.989 572.455 585.848C567.88 594.044 559.213 602.485 556.323 598.869C555.84 598.385 555.601 597.903 554.877 597.421C550.303 607.789 544.041 622.498 548.377 632.143C551.507 639.136 571.733 609.958 574.622 606.583C576.067 616.711 555.36 644.922 545.487 634.795ZM492.269 627.32C489.139 630.455 483.602 626.356 485.768 615.265C488.176 601.761 499.011 576.444 499.253 576.202C500.938 572.344 506.958 573.791 505.272 578.613C496.843 602.244 492.51 609.477 491.788 621.292C491.546 624.427 494.194 625.633 492.269 627.32ZM476.615 612.371C476.135 615.747 473.003 625.391 470.596 628.285C467.706 631.661 462.409 631.42 460.242 624.428C458.578 619.152 457.772 613.734 457.649 608.148C453.946 617.678 446.758 629.616 441.943 625.15C431.107 614.54 446.997 581.507 447.239 573.791C438.089 582.712 424.606 621.292 421.233 630.696C418.825 632.143 416.419 631.42 416.177 628.526C415.816 624.686 417.673 615.443 420.447 604.386C416.894 606.948 411.358 610.444 403.174 615.747C404.379 624.909 405.341 626.597 400.045 630.455C393.784 635.037 388.246 634.555 382.948 632.625C381.023 631.901 380.3 630.215 379.578 628.044C379.825 627.547 380.134 627.095 380.426 626.632C373.833 631.467 368.528 623.168 368.743 616.952L362.722 624.669C360.315 627.079 357.186 627.08 355.499 624.909C347.553 614.783 362.482 585.365 372.595 582.954C376.93 581.989 380.542 582.471 382.708 585.606C383.672 586.811 383.431 587.293 381.744 588.983C380.782 588.018 379.818 587.536 379.097 586.571C375.003 580.06 355.499 605.619 358.387 622.016C361.037 618.881 364.168 616.229 372.836 599.351C373.317 598.385 373.799 597.181 375.244 597.181C376.689 596.94 378.373 596.698 379.338 597.903C379.578 598.385 379.578 599.109 379.338 599.591C375.485 605.86 371.872 617.917 375.244 624.669C380.059 622.981 385.598 608.754 388.487 602.725C390 605.971 389.173 614.845 384.639 621.86C388.035 618.972 392.407 616.548 397.154 613.577C395.47 606.102 389.209 592.84 403.174 583.677C413.529 576.685 421.716 580.784 414.25 592.358C411.842 595.734 409.195 595.01 406.304 593.322C408.232 590.428 410.157 587.777 411.362 584.642C404.379 588.018 400.286 593.322 399.562 599.351C399.082 602.967 400.526 606.102 401.488 609.236C401.73 610.201 402.694 610.201 404.379 609.236C413.37 603.834 418.837 600.168 422.002 598.351C428.58 573.44 438.33 543.083 438.33 542.928C442.181 542.445 443.388 543.651 442.423 546.786C439.053 559.084 425.569 604.173 425.086 607.066C428.698 599.832 436.885 568.485 449.406 569.691C451.574 569.934 453.017 571.622 452.778 574.274C452.536 582.712 440.979 610.201 444.592 621.292C449.711 614.881 453.888 608.467 457.788 601.889C458.234 594.822 459.629 587.485 461.684 579.819C462.409 576.926 463.131 576.202 465.779 575.961C467.948 575.961 469.871 577.648 469.15 579.819C466.744 590.428 462.891 597.421 466.02 621.774H466.744C466.983 621.534 468.428 616.711 468.669 616.229C469.392 614.54 469.871 612.612 470.596 610.683C472.039 606.825 473.245 602.967 474.931 599.109C478.06 591.393 482.394 583.677 488.172 576.685C499.25 563.181 493.469 575.72 491.785 578.373C483.839 591.152 477.096 609.477 476.615 612.371ZM504.55 561.734C504.789 559.564 505.272 557.636 505.754 555.464C505.754 554.742 505.993 554.02 506.234 553.295C506.476 552.573 506.958 551.608 508.162 551.126C510.087 550.161 510.81 551.367 512.254 552.089C513.941 553.537 513.217 555.225 512.014 557.153C510.81 559.084 509.847 560.771 508.642 562.459C506.958 565.593 503.827 564.628 504.55 561.734ZM783.22 598.22L773.291 597.924L773.178 593.965C775.983 592.979 777.957 590.264 777.868 587.128C777.754 583.246 774.521 580.191 770.645 580.303C766.768 580.416 763.716 583.654 763.828 587.536C763.911 590.403 765.699 592.814 768.189 593.836L768.302 597.774L752.726 597.31L752.606 593.146C755.413 592.159 757.388 589.445 757.298 586.309C757.185 582.426 753.952 579.371 750.074 579.483C746.197 579.596 743.145 582.834 743.258 586.715C743.342 589.582 745.128 591.994 747.617 593.016L747.737 597.161L733.712 596.744L733.582 592.213C736.389 591.228 738.363 588.512 738.274 585.376C738.16 581.494 734.926 578.439 731.05 578.552C727.173 578.663 724.122 581.902 724.234 585.784C724.316 588.65 726.104 591.061 728.593 592.085L728.723 596.594L672.036 594.903H672.011L597.974 592.694C597.974 592.694 592.145 529.434 542.864 520.346C502.887 512.974 484.818 542.887 470.156 543.312C455.494 543.738 450.456 484.159 379.985 486.204C309.511 488.247 284.492 572.403 283.792 613.661C283.651 622.062 284.236 631.857 285.882 642.195C288.772 633.759 292.138 623.837 296.024 612.13C308.303 574.032 313.119 565.11 315.286 553.777C316.007 549.196 323.473 549.196 322.51 553.537C320.354 563.606 299.059 624.339 288.364 654.689C288.696 656.083 289.048 657.479 289.422 658.876C290.635 656.314 292.091 653.228 293.856 649.504L294.337 648.539C294.337 648.539 343.218 539.551 359.592 520.502C360.554 519.297 361.035 517.851 361.999 516.645C371.871 502.901 376.206 496.874 383.189 497.837C397.287 499.751 299.709 689.485 321.765 715.222C322.195 715.609 322.637 715.992 323.077 716.373C330.174 719.907 352.558 697.075 357.183 692.906C355.016 698.21 351.163 701.104 351.405 702.552C351.405 702.946 338.366 717.518 327.293 719.79C339.487 729.06 354.823 735.587 374.006 737.608C408.179 741.209 436.904 719.191 445.939 704.235C454.972 689.279 463.046 673.875 477.942 681.5C492.837 689.127 529.104 715.566 565.166 702.197C565.166 702.197 545.865 689.483 548.585 669.023C551.307 648.561 552.938 639.506 599.79 639.095L706.291 638.848C713.871 639.102 733.332 640.908 737.259 662.124L785 659.791L783.22 598.22Z" fill="#1A427D"/>
<path fill-rule="evenodd" clip-rule="evenodd" d="M203.193 242.31H127.703V173.597C127.703 153.617 126.867 141.19 125.193 136.317C123.639 131.281 120.113 128.763 114.614 128.763C108.398 128.763 104.453 131.769 102.779 137.779C101.106 143.789 100.269 156.785 100.269 176.765V359.999C100.269 379.167 101.106 391.675 102.779 397.523C104.453 403.37 108.218 406.294 114.076 406.294C119.694 406.294 123.34 403.37 125.014 397.523C126.807 391.675 127.703 377.948 127.703 356.344V306.88H203.193V322.231C203.193 363.004 201.041 391.918 196.738 408.975C192.554 426.031 183.17 440.976 168.586 453.808C154.122 466.641 136.25 473.058 114.972 473.058C92.8575 473.058 74.6277 467.616 60.283 456.732C45.9382 445.849 36.4348 430.823 31.7727 411.655C27.1107 392.324 24.7797 363.329 24.7797 324.668V209.416C24.7797 180.988 25.4969 159.708 26.9314 145.576C28.3659 131.281 32.6095 117.555 39.6624 104.397C46.8347 91.2394 56.6968 80.9244 69.2484 73.4521C81.9197 65.8174 96.4437 62 112.821 62C135.055 62 153.404 67.8479 167.869 79.5437C182.333 91.2394 191.836 105.859 196.379 123.403C200.921 140.784 203.193 167.912 203.193 204.786V242.31Z" fill="#7394C7"/>
<path fill-rule="evenodd" clip-rule="evenodd" d="M409.578 70.2845L371.206 464.773H256.627L213.055 70.2845H292.668C301.873 178.958 308.447 270.818 312.392 345.866C316.337 270.006 320.461 202.593 324.765 143.627L329.965 70.2845H409.578Z" fill="#7394C7"/>
<path fill-rule="evenodd" clip-rule="evenodd" d="M422.488 70.2845H498.516C519.076 70.2845 534.856 72.4775 545.853 76.8634C556.97 81.2493 565.278 87.5845 570.777 95.869C576.396 104.154 580.161 114.225 582.074 126.083C584.106 137.779 585.122 155.972 585.122 180.663V215.02C585.122 240.198 583.209 258.554 579.384 270.087C575.559 281.621 568.506 290.474 558.226 296.646C548.065 302.819 534.736 305.906 518.24 305.906H497.978V464.773H422.488V70.2845ZM497.978 137.779V238.168C500.129 238.33 501.982 238.411 503.536 238.411C510.469 238.411 515.251 236.137 517.881 231.589C520.63 226.878 522.005 217.213 522.005 202.593V170.186C522.005 156.703 520.451 147.931 517.343 143.87C514.235 139.809 507.78 137.779 497.978 137.779Z" fill="#7394C7"/>
<path fill-rule="evenodd" clip-rule="evenodd" d="M606.819 70.2845H660.253C695.876 70.2845 719.963 72.1526 732.515 75.8887C745.186 79.6249 755.466 89.2089 763.356 104.641C771.365 119.91 775.37 144.358 775.37 177.983C775.37 208.685 772.56 229.315 766.942 239.873C761.324 250.432 750.266 256.767 733.77 258.879C748.712 263.915 758.754 270.656 763.894 279.103C769.034 287.55 772.202 295.347 773.397 302.494C774.712 309.479 775.37 328.891 775.37 360.73V464.773H705.26V333.683C705.26 312.566 704.004 299.489 701.494 294.454C699.103 289.418 692.708 286.9 682.308 286.9V464.773H606.819V70.2845ZM682.308 137.779V225.497C690.795 225.497 696.712 223.954 700.06 220.868C703.526 217.619 705.26 207.304 705.26 189.923V168.237C705.26 155.729 703.586 147.525 700.239 143.627C697.011 139.728 691.034 137.779 682.308 137.779Z" fill="#7394C7"/>
</svg>
